<svg id="Layer_1" data-name="Layer 1" xmlns="http://www.w3.org/2000/svg" viewBox="0 0 368 64"><defs><style>.cls-1{fill:#7a7a7a;}.cls-2{fill:#88c7e8;}.cls-3{fill:#07addc;}.cls-4{fill:#2f80c2;}</style></defs><title>midtrans</title><path class="cls-1" d="M153.52,15.91a2.67,2.67,0,0,1,2.61-2.69,2.64,2.64,0,0,1,2.68,2.69V47.35A2.59,2.59,0,0,1,156.2,50a2.64,2.64,0,0,1-2.68-2.69Z"/><path class="cls-1" d="M173.08,31.75v.14c0,8.42,5.84,13.8,12.5,13.8s12.84-5.59,12.84-13.8v-.14c0-8.22-6.25-13.74-12.84-13.74-6.87,0-12.5,5.11-12.5,13.74m30.42,15.6a2.65,2.65,0,1,1-5.29,0V43.52c-2.88,4.28-7.07,6.94-13.6,6.94-8.51,0-17-6.77-17-18.51v-.13c0-11.67,8.44-18.57,17-18.57,6.6,0,10.85,2.58,13.6,6.59V4.23a2.6,2.6,0,0,1,2.61-2.7,2.65,2.65,0,0,1,2.68,2.7Z"/><path class="cls-1" d="M340.87,45.9a2.42,2.42,0,0,1-1-1.93,2.3,2.3,0,0,1,2.33-2.28,2.15,2.15,0,0,1,1.31.41,19.83,19.83,0,0,0,11.26,3.8c4.26,0,7.35-2.21,7.35-5.66V40.1c0-3.59-4.19-5-8.86-6.28-5.56-1.59-11.74-3.52-11.74-10.08V23.6c0-6.14,5.08-10.22,12.08-10.22a24.66,24.66,0,0,1,11.33,3,2.57,2.57,0,0,1,1.3,2.21,2.31,2.31,0,0,1-2.33,2.28,2.65,2.65,0,0,1-1.17-.28,19.17,19.17,0,0,0-9.27-2.76c-4.18,0-6.86,2.21-6.86,5.18v.14c0,3.38,4.39,4.69,9.13,6.14,5.49,1.66,11.4,3.8,11.4,10.22v.14c0,6.76-5.56,10.7-12.64,10.7a24.49,24.49,0,0,1-13.66-4.49"/><path class="cls-1" d="M332.29,28.27c0-8-7-15-15.45-15A15.51,15.51,0,0,0,301.37,28.8V47.19a2.77,2.77,0,0,0,2.8,2.82,2.71,2.71,0,0,0,2.72-2.82V28.27a9.94,9.94,0,1,1,19.87,0V47.19a2.77,2.77,0,1,0,5.53,0s0-17.19,0-18.92"/><path class="cls-1" d="M291.94,27.88h0a15.51,15.51,0,0,0-15.4-14.16h-2.37a2.52,2.52,0,0,0,0,5h2.36a10.32,10.32,0,0,1,10.35,10v.45a37.45,37.45,0,0,0-10.92-1.52c-9,0-15.17,4-15.17,11.53v.14c0,7.32,6.41,11.12,13,11.12a15.26,15.26,0,0,0,13.15-7.06v4.09a2.51,2.51,0,1,0,5,0Zm-17.22,17.8c-4.81,0-8.6-2.06-8.6-6.55V39c0-4.49,3.71-7.39,10.37-7.39a44.92,44.92,0,0,1,10.43,1.52h0C286.92,39.68,280.84,45.68,274.72,45.68Z"/><path class="cls-1" d="M259.77,16.23a2.51,2.51,0,0,0-2.51-2.52h-1.7a15.51,15.51,0,0,0-15.47,15.55V47.19A2.77,2.77,0,0,0,242.88,50a2.71,2.71,0,0,0,2.73-2.82V28.73a10,10,0,0,1,9.93-10h1.72A2.51,2.51,0,0,0,259.77,16.23Z"/><path class="cls-1" d="M231.31,16.1h0A2.34,2.34,0,0,0,229,13.75h-9.27V4.38a2.84,2.84,0,0,0-2.66-2.84,2.64,2.64,0,0,0-2.63,2.7v36c0,7.25,4.32,10.08,10,10.08a13.32,13.32,0,0,0,5.22-1,2.2,2.2,0,0,0,1.51-2.07A2.29,2.29,0,0,0,228.91,45a15,15,0,0,1-3.23.48c-3.57,0-6-1.58-6-5.93V18.45H229A2.34,2.34,0,0,0,231.31,16.1Z"/><path class="cls-1" d="M127.77,13.22a14.77,14.77,0,0,0-12.2,6.46,14.61,14.61,0,0,0-12.1-6.43A14.84,14.84,0,0,0,88.66,28.13V47.35A2.64,2.64,0,0,0,91.34,50,2.59,2.59,0,0,0,94,47.35V27.62a9.51,9.51,0,1,1,19,0V45.15h0a2.65,2.65,0,1,0,5.29,0V27.6a9.51,9.51,0,1,1,19,0V47.32a2.65,2.65,0,1,0,5.29,0V28.13A14.92,14.92,0,0,0,127.77,13.22Z"/><path class="cls-2" d="M4.83,50.75a4,4,0,0,1-4-4V17.53a4,4,0,1,1,8,0V46.74A4,4,0,0,1,4.83,50.75Z"/><path class="cls-3" d="M52.73,50.75a4,4,0,0,1-4-4V17.56a4,4,0,1,1,8,0V46.74A4,4,0,0,1,52.73,50.75Z"/><path class="cls-4" d="M28.78,62.47a4,4,0,0,1-4-4V5.85a4,4,0,1,1,8,0v52.6A4,4,0,0,1,28.78,62.47Z"/></svg>
